<?xml version="1.0" encoding="UTF-8"?>
<svg width="20px" height="24px" viewBox="0 0 20 24" version="1.1" xmlns="http://www.w3.org/2000/svg" xmlns:xlink="http://www.w3.org/1999/xlink">
    <!-- Generator: Sketch 46.2 (44496) - http://www.bohemiancoding.com/sketch -->
    <title>002-backpack</title>
    <desc>Created with Sketch.</desc>
    <defs></defs>
    <g id="Welcome" stroke="none" stroke-width="1" fill="none" fill-rule="evenodd">
        <g id="Blog-List-2" transform="translate(-1285.000000, -685.000000)" fill-rule="nonzero" fill="#000000">
            <g id="Group-11" transform="translate(1266.000000, 432.000000)">
                <g id="Group-5" transform="translate(17.000000, 61.000000)">
                    <g id="002-backpack" transform="translate(2.000000, 192.000000)">
                        <path d="M12.8306311,4.31116505 L6.79893204,4.31116505 L6.79893204,7.38053398 L12.8306796,7.38053398 L12.8306796,4.31116505 L12.8306311,4.31116505 Z M11.8597573,6.40961165 L7.76975728,6.40961165 L7.76975728,5.28203883 L11.8597573,5.28203883 L11.8597573,6.40961165 Z" id="Shape"></path>
                        <path d="M19.946165,18.7339806 C19.7330583,15.3855825 19.3924272,13.3926699 18.8417476,12.2720874 C18.3193204,11.2090777 17.5953398,10.9065534 16.8481553,10.8342718 L16.6001456,5.98024272 C16.572233,5.43067961 16.2935922,4.92480583 15.8603398,4.59393204 L15.9258252,3.88203883 C15.970534,3.3965534 15.8194175,2.93645631 15.5002427,2.5865534 C15.1810194,2.23660194 14.736699,2.0438835 14.2490291,2.0438835 L12.8306311,2.0438835 L12.8306311,1.7992233 C12.8306311,0.807087379 12.0235437,0 11.0315049,0 L8.59805825,0 C7.60597087,0 6.7988835,0.807087379 6.7988835,1.79917476 L6.7988835,2.04383495 L5.75097087,2.04383495 C5.26334951,2.04383495 4.81898058,2.2365534 4.49985437,2.58645631 C4.18072816,2.93635922 4.02956311,3.39640777 4.07427184,3.88194175 L4.13975728,4.59378641 C3.70082524,4.9284466 3.42752427,5.4338835 3.39970874,5.98009709 L3.15169903,10.8343204 C2.40461165,10.906699 1.68072816,11.2092233 1.15834951,12.2721359 C0.607621359,13.3927184 0.266990291,15.3856311 0.0538349515,18.7340291 C0.0153883495,19.337767 0.141553398,19.785534 0.439417476,20.1030097 C0.898252427,20.5919417 1.64174757,20.6601456 2.64917476,20.6696602 L2.60781553,21.478932 C2.58315534,21.9620874 2.75063107,22.4186893 3.07936893,22.7646117 C3.4081068,23.110534 3.85558252,23.3010194 4.33941748,23.3010194 L15.6604369,23.3010194 C16.1442233,23.3010194 16.5917476,23.110534 16.9204854,22.7646117 C17.2491748,22.4186893 17.416699,21.9620874 17.3920388,21.4788835 L17.3506796,20.6696602 C18.3582524,20.6601456 19.1018447,20.5919903 19.5606796,20.1029612 C19.8585437,19.7854854 19.9846117,19.3376699 19.946165,18.7339806 Z M7.76980583,1.79917476 C7.76980583,1.34247573 8.14135922,0.970873786 8.5981068,0.970873786 L11.0315534,0.970873786 C11.4882524,0.970873786 11.8598544,1.34242718 11.8598544,1.79917476 L11.8598544,2.04383495 L7.76985437,2.04383495 L7.76985437,1.79917476 L7.76980583,1.79917476 Z M5.21713592,3.24067961 C5.35009709,3.09495146 5.53966019,3.01466019 5.75097087,3.01466019 L14.2490291,3.01466019 C14.4603883,3.01466019 14.65,3.09495146 14.7829612,3.24072816 C14.9158738,3.38645631 14.9784466,3.58257282 14.9590291,3.79296117 L14.4612621,9.2034466 C14.4180097,9.67354369 13.9827184,10.0706796 13.5106311,10.0706796 L6.48936893,10.0706796 C6.0173301,10.0706796 5.58194175,9.67349515 5.53864078,9.2034466 L5.04106796,3.79296117 L5.04106796,3.79291262 C5.02165049,3.58257282 5.08417476,3.38645631 5.21713592,3.24067961 Z M6.72334951,17.8824272 C6.63514563,17.8824272 6.53684466,17.771165 6.53684466,17.6115534 L6.53684466,15.7599029 C6.53684466,15.6003398 6.63514563,15.4891748 6.72334951,15.4891748 L7.84524272,15.4891748 C7.93339806,15.4891748 8.03165049,15.6003398 8.03165049,15.7599029 L8.03165049,17.6115534 C8.03165049,17.771165 7.9334466,17.8824272 7.84524272,17.8824272 L6.72334951,17.8824272 Z M7.4957767,14.5183495 L7.07300971,14.5183495 L7.07300971,11.0415534 L7.4957767,11.0415534 L7.4957767,14.5183495 Z M7.07300971,18.853301 L7.4957767,18.853301 L7.4957767,22.3300971 L7.07300971,22.3300971 L7.07300971,18.853301 Z M8.46665049,18.658301 C8.78849515,18.4375243 9.00252427,18.0509709 9.00252427,17.6115534 L9.00252427,15.7599029 C9.00252427,15.320534 8.78849515,14.9340291 8.46665049,14.713301 L8.46665049,11.0415534 L11.1630097,11.0415534 L11.1630097,14.7132524 C10.841068,14.9339806 10.6270388,15.320534 10.6270388,15.7599029 L10.6270388,17.6115534 C10.6270388,18.0510194 10.841068,18.4375728 11.1630097,18.6583495 L11.1630097,22.3300971 L8.46665049,22.3300971 L8.46665049,18.658301 Z M11.7843204,17.8824272 C11.696165,17.8824272 11.5979126,17.771165 11.5979126,17.6115534 L11.5979126,15.7599029 C11.5979126,15.6003398 11.6961165,15.4891748 11.7843204,15.4891748 L12.9062136,15.4891748 C12.9944175,15.4891748 13.0927184,15.6003398 13.0927184,15.7599029 L13.0927184,17.6115534 C13.0927184,17.771165 12.9944175,17.8824272 12.9062136,17.8824272 L11.7843204,17.8824272 Z M12.1338835,11.0416019 L12.5566505,11.0416019 L12.5566505,14.5183981 L12.1338835,14.5183981 L12.1338835,11.0416019 Z M12.1338835,18.853301 L12.5566505,18.853301 L12.5566505,22.3300971 L12.1338835,22.3300971 L12.1338835,18.853301 Z M1.14737864,19.4385922 C1.04451456,19.3289806 1.00257282,19.1126699 1.02276699,18.7956796 C1.40126214,12.8495146 2.17378641,11.946699 3.10184466,11.8096117 L2.69873786,19.6991262 C1.95490291,19.6930583 1.35208738,19.656699 1.14737864,19.4385922 Z M3.78315534,22.0957282 C3.63956311,21.9446117 3.56645631,21.7431068 3.57742718,21.5283495 L4.33446602,6.71126214 L4.57184466,9.29242718 C4.64859223,10.1257767 5.30135922,10.8244175 6.10213592,10.9990777 L6.10213592,14.7131068 C5.78009709,14.933835 5.56597087,15.3203883 5.56597087,15.7598544 L5.56597087,17.6115049 C5.56597087,18.0510194 5.78009709,18.4376699 6.10213592,18.6583981 L6.10213592,22.3300971 L4.33936893,22.3300971 C4.12432039,22.3300971 3.92679612,22.2468932 3.78315534,22.0957282 Z M16.2166505,22.0957282 C16.0730583,22.2468447 15.8754854,22.3300971 15.6604369,22.3300971 L13.5275243,22.3300971 L13.5275243,18.6583981 C13.8495146,18.4376699 14.0635922,18.051068 14.0635922,17.6116019 L14.0635922,15.7599515 C14.0635922,15.320534 13.8495146,14.9339806 13.5275243,14.7132524 L13.5275243,11.041165 C14.4891748,11.0320874 15.3399029,10.2513107 15.4280583,9.29242718 L15.6653883,6.71262136 L16.4223786,21.5283495 C16.4333495,21.7431068 16.3602427,21.9446117 16.2166505,22.0957282 Z M18.8526699,19.4385922 C18.6480097,19.6567476 18.0450485,19.6930583 17.301068,19.6991262 L16.8979612,11.8095631 C17.826165,11.9465534 18.5987864,12.8488835 18.977233,18.7956796 C18.9974757,19.1126699 18.955534,19.3289806 18.8526699,19.4385922 Z" id="Shape"></path>
                    </g>
                </g>
            </g>
        </g>
    </g>
</svg>