<?xml version="1.0" encoding="UTF-8"?>
<svg width="25px" height="24px" viewBox="0 0 25 24" version="1.1" xmlns="http://www.w3.org/2000/svg" xmlns:xlink="http://www.w3.org/1999/xlink">
    <!-- Generator: Sketch 46.2 (44496) - http://www.bohemiancoding.com/sketch -->
    <title>005-map</title>
    <desc>Created with Sketch.</desc>
    <defs></defs>
    <g id="Welcome" stroke="none" stroke-width="1" fill="none" fill-rule="evenodd">
        <g id="Blog-List-2" transform="translate(-1283.000000, -493.000000)" fill-rule="nonzero" fill="#000000">
            <g id="Group-11" transform="translate(1266.000000, 432.000000)">
                <g id="Group-5" transform="translate(17.000000, 61.000000)">
                    <g id="005-map" transform="translate(0.105882, 0.740416)">
                        <path d="M23.8722339,7.16383626 C23.7360468,6.68930994 23.508538,6.34021053 23.1767018,6.09670175 C23.1757661,6.096 23.1747836,6.0954386 23.1738012,6.09473684 C22.9208421,5.90994152 22.6440234,5.8100117 22.3762339,5.71349708 C22.1585965,5.63504094 21.9335205,5.55396491 21.7175673,5.42451462 L21.717614,5.42451462 C21.210386,5.12046784 20.9073684,4.92130994 20.7068538,4.78956725 C20.2621287,4.49735673 20.1867602,4.45876023 19.7031579,4.42507602 C19.4607251,4.40823392 19.0550175,4.37997661 18.2676491,4.25927485 C18.1562573,4.24224561 18.1541053,4.24004678 18.0404211,4.12589474 C17.8947836,3.97978947 17.6747135,3.75897076 17.1698246,3.50549708 C16.7374035,3.2885614 16.3034854,3.20004678 15.8428538,3.2345731 C15.5432047,3.25716959 15.3106433,3.37230409 14.9254269,3.56304094 C14.8429474,3.60383626 14.7533567,3.64818713 14.6523509,3.69721637 C14.6695205,3.47387135 14.6840702,3.22877193 14.6945029,3.03387135 C14.9635556,2.35153216 14.9374503,2.12463158 14.5681871,1.6077193 C14.5030175,1.5165848 14.4299883,1.41426901 14.3443275,1.28 C14.1856842,0.894877193 13.8156725,0.615438596 13.3640234,0.544374269 C12.8820117,0.468678363 12.410152,0.636631579 12.1148538,0.984701754 C11.5491462,1.40495906 10.0993216,1.90619883 9.34905263,1.73389474 C9.2585731,1.71312281 9.19602339,1.68622222 9.15246784,1.65927485 C9.19532164,1.52608187 9.23812865,1.39288889 9.28088889,1.25960234 C9.29497076,1.21562573 9.30250292,1.16977778 9.30320468,1.12360234 C9.30984795,0.669894737 9.15242105,0.355181287 8.83532164,0.188304094 C8.59335673,0.0609590643 8.31279532,0.0520233918 7.98792982,0.0416374269 C7.93726316,0.04 7.88453801,0.0383157895 7.8297076,0.0361169591 C7.04776608,0.0047251462 5.98849123,0.162011696 5.57852632,0.70877193 C5.4005614,0.946152047 5.35490058,1.23279532 5.45005848,1.51588304 C5.46830409,1.57024561 5.49642105,1.62077193 5.53295906,1.66493567 L5.69469006,1.86063158 C5.50872515,1.99607018 5.17955556,2.1677193 5.03466667,2.24332164 C5.01249123,2.25487719 4.99083041,2.26615205 4.96977778,2.27723977 C4.67677193,2.10994152 4.33992982,1.91845614 4.2851462,1.89122807 C4.27176608,1.8845848 4.25810526,1.87859649 4.24416374,1.87326316 C3.4371462,1.56449123 2.70474854,1.74619883 2.28477193,2.35939181 C1.86053801,2.97880702 1.87635088,3.87237427 2.29431579,4.4980117 C2.23017544,4.81922807 2.16093567,5.15111111 2.10853801,5.38484211 C1.43897076,5.37950877 0.957426901,5.47840936 0.64271345,5.688 C0.431906433,5.82844444 0.311532164,6.0697076 0.274619883,6.42563743 C0.274619883,6.42568421 0.274619883,6.42573099 0.274619883,6.42577778 C0.251040936,6.65338012 0.265403509,6.91508772 0.289076023,7.1071345 C0.154760234,7.34095906 0,7.71373099 0,8.12407018 C0,8.80308772 0.346011696,9.32781287 1.00084211,9.64224561 C1.26460819,9.77745029 1.59812865,9.67840936 2.25066667,9.46484211 C2.29932164,9.44893567 2.35391813,9.43106433 2.40725146,9.41394152 C2.99780117,10.1936842 4.09614035,10.0499181 4.65688889,9.83316959 C4.74825731,9.80014035 4.84776608,9.76804678 4.93932164,9.74128655 C5.05637427,10.2036959 5.25819883,10.8960468 5.81632749,11.125193 C5.97454971,11.1933567 6.9417076,11.568 7.02900585,11.6016374 C7.25824561,11.6899181 7.42217544,11.7406316 7.54184795,11.7776374 C7.63728655,11.8071579 7.70624561,11.8284444 7.76701754,11.8555322 C7.91639766,11.9220585 7.97702924,11.9720702 7.99794152,11.9928421 C7.99546199,12.0196959 7.98643275,12.0654503 7.98007018,12.0977778 C7.94512281,12.2752281 7.88664327,12.5722105 8.0931462,12.8692865 C8.26573099,13.117614 8.57763743,13.2936608 9.1037193,13.4394854 L9.2797193,13.4972164 C9.2962807,13.5508772 9.31883041,13.6454269 9.33819883,13.8020117 C9.33819883,13.8021053 9.33819883,13.8021988 9.33819883,13.8022924 C9.40266667,14.3243977 9.36846784,15.0405614 9.34208187,15.1747836 C9.32996491,15.2267135 9.32678363,15.2803743 9.33277193,15.3334269 C9.3485848,15.4738713 9.36650292,15.633076 10.4780351,17.437614 C10.8111813,17.9784327 11.1453099,18.5080702 11.3461053,18.8246082 C10.9797427,19.2803743 10.4520702,20.0417778 10.2525848,20.3382456 C10.0511813,20.6375673 9.99681871,21.0068772 10.1033918,21.3513918 C10.2101053,21.6961871 10.4637661,21.9704327 10.7993918,22.1038596 C11.0280234,22.1947135 11.2662924,22.285193 11.4576842,22.357848 C11.563462,22.3979883 11.6798596,22.4421988 11.7456842,22.4681637 C11.7653333,22.4871111 11.7896608,22.5109708 11.8110409,22.531883 C12.203883,22.9167719 12.489076,23.1724912 12.8020585,23.1724444 C12.8141287,23.1724444 12.8263392,23.1720702 12.8384561,23.1713216 C12.9921871,23.1615906 13.1288889,23.0904327 13.223345,22.9710877 C13.230269,22.9622456 13.2369591,22.9532164 13.2432749,22.9439532 L14.0158596,21.8087485 L14.377076,21.3790877 C14.5256608,21.202386 14.6742924,21.0255906 14.8226901,20.8488421 C14.8311579,20.8387368 14.8392515,20.8283041 14.8468304,20.8174971 L14.923883,20.7083509 C15.4252632,19.9985029 15.4568421,19.9119532 15.4872515,19.1640702 C15.489076,19.1195789 15.4909942,19.0720468 15.4932398,19.0210058 C15.9412865,18.5839064 16.4123509,18.1339415 16.523462,18.0433216 C17.2042573,17.6391111 17.658807,17.5919064 18.0602105,17.5501754 C18.4685848,17.5077427 18.890807,17.4638596 19.3302924,17.0759766 C19.7391345,16.7151345 20.1186901,16.097731 20.5992047,15.0115088 C20.6619883,14.8695205 20.7790409,14.5600468 20.9470409,14.0915556 C20.9695906,14.028538 20.9915322,13.9622924 21.0160936,13.8830409 C21.0161871,13.882807 21.0161871,13.8825263 21.0162807,13.8822456 C21.1270175,13.5243041 21.1969591,13.1553216 21.2241871,12.7855906 C21.2397661,12.5745029 21.2434152,12.5003977 21.2458947,12.4513684 C21.2485146,12.3986433 21.2489825,12.3883509 21.2741053,12.1459181 C21.3590175,11.9821287 21.6753684,11.4744327 22.0082807,11.0440702 L22.6926316,10.158269 C22.694924,10.1552749 22.6971696,10.1523275 22.6994152,10.1492865 C22.765848,10.058807 22.8328421,9.96926316 22.8992749,9.88037427 C23.4174503,9.18736842 23.9533099,8.47078363 23.9533099,7.6562807 C23.9532164,7.46952047 23.909848,7.29487719 23.8722339,7.16383626 Z M3.05665497,2.88809357 C3.22128655,2.64767251 3.49964912,2.59719298 3.88407018,2.73759064 C3.99209357,2.79681871 4.4314386,3.04711111 4.73319298,3.21988304 C4.88322807,3.30573099 5.06835088,3.30180117 5.21469006,3.20991813 C5.26287719,3.17960234 5.36219883,3.12781287 5.46727485,3.07298246 C6.10348538,2.7411462 6.59845614,2.45333333 6.70353216,2.02587135 C6.74900585,1.84084211 6.71396491,1.6525848 6.6048655,1.49581287 C6.59752047,1.48519298 6.5897076,1.47494737 6.58147368,1.46502924 L6.38007018,1.22128655 C6.55592982,1.09983626 7.08397661,0.942923977 7.79209357,0.971087719 C7.84954386,0.973380117 7.90484211,0.975157895 7.9579883,0.976842105 C8.09506433,0.981239766 8.27504094,0.986994152 8.36261988,1.0054269 C8.36411696,1.01637427 8.36552047,1.03003509 8.36645614,1.04692398 C8.30811696,1.22877193 8.24959064,1.41052632 8.19111111,1.59223392 L8.18484211,1.61178947 C8.14816374,1.72580117 8.1565848,1.84954386 8.20837427,1.95752047 C8.32509942,2.20070175 8.58133333,2.51756725 9.13946199,2.64584795 C10.2545965,2.90203509 12.0421053,2.23897076 12.7352982,1.68785965 C12.7660819,1.66334503 12.7936842,1.63508772 12.8174503,1.60369591 C12.9160702,1.47302924 13.0949708,1.44926316 13.2186667,1.46867836 C13.322152,1.48500585 13.4457544,1.53983626 13.482386,1.6448655 C13.4939415,1.67808187 13.509193,1.70984795 13.5279064,1.73960234 C13.6388772,1.91649123 13.7319766,2.04683041 13.8068304,2.15162573 C13.8604444,2.22661988 13.9207018,2.31101754 13.9369825,2.3465731 C13.9332398,2.3997193 13.8865029,2.53740351 13.7977544,2.75635088 C13.7781988,2.80463158 13.7668772,2.85581287 13.7641637,2.90778947 C13.7403509,3.36748538 13.700538,3.93150877 13.6785029,4.03794152 C13.6345731,4.21759064 13.6841637,4.40271345 13.8111345,4.53323977 C13.885193,4.60921637 14.0816842,4.81136842 14.7748304,4.66189474 C14.8099649,4.65431579 14.8440702,4.64271345 14.8765848,4.62736842 C15.0612865,4.53983626 15.2161404,4.46315789 15.340538,4.40159064 C15.6639064,4.24149708 15.7996725,4.17623392 15.9131696,4.16762573 C16.2078129,4.14540351 16.4659181,4.19925146 16.7501754,4.34184795 C17.1192515,4.52711111 17.2565614,4.66488889 17.377731,4.78647953 C17.5337544,4.94306433 17.7106433,5.12051462 18.1259415,5.18418713 C18.9514854,5.31073684 19.3813801,5.34063158 19.6382222,5.35854971 C19.7854503,5.36879532 19.8576842,5.37426901 19.8906199,5.38647953 C19.938152,5.40407018 20.0395789,5.47073684 20.1931228,5.57160234 C20.3469474,5.67265497 20.5592515,5.81221053 20.8731696,6.00608187 L2.91181287,6.00608187 C2.96177778,5.86390643 3.04954386,5.51340351 3.25338012,4.47064327 C3.28168421,4.32594152 3.24009357,4.17637427 3.14123977,4.06704094 C2.87083041,3.76804678 2.83129825,3.21712281 3.05665497,2.88809357 Z M19.7434386,14.6329357 C19.3323041,15.5623392 19.0042573,16.1156959 18.7111111,16.3744561 C18.5048889,16.5564912 18.3328655,16.5810994 17.963462,16.619462 C17.5118596,16.666386 16.8932865,16.7306667 16.0247485,17.2513216 C15.976655,17.2801404 15.8639064,17.3476959 14.7071813,18.4809357 C14.6232515,18.5631813 14.5733333,18.6739649 14.567345,18.791345 C14.5607953,18.9195322 14.5563509,19.0298012 14.5524211,19.1260351 C14.5403509,19.4225029 14.5341754,19.546386 14.5013333,19.6351813 C14.4628772,19.7393216 14.3551813,19.8917427 14.1596725,20.1684678 L14.0935673,20.2621754 C13.9494737,20.4337778 13.8052398,20.6052865 13.6610058,20.7767953 L13.2843041,21.2249357 C13.274152,21.2370058 13.2646082,21.2495906 13.2557661,21.2626433 L12.697076,22.0833684 C12.6042105,21.9990175 12.5110175,21.9077427 12.4658246,21.8634386 C12.3524678,21.7524211 12.3055439,21.7064795 12.240655,21.6673684 C12.1854035,21.6339649 12.1378246,21.6151579 11.7898012,21.4830409 C11.6014035,21.4115556 11.3669708,21.3225263 11.145076,21.2343392 C11.0474386,21.1955556 11.0105731,21.1177076 10.9972865,21.074807 C10.9840468,21.032 10.9705263,20.9472749 11.0289123,20.860538 C11.5523743,20.0825263 12.1134971,19.3352515 12.2468304,19.2116023 C12.4127719,19.0576842 12.4447251,18.8070175 12.3227135,18.6163743 C11.4329825,17.2262924 10.4651228,15.6455673 10.2774269,15.2362105 C10.3048889,14.9984094 10.3190175,14.6015906 10.3055906,14.2128187 L19.9071813,14.2128187 C19.8104795,14.4733567 19.7644444,14.5854503 19.7434386,14.6329357 Z M22.1498012,9.32004678 C22.0828538,9.40959064 22.0153918,9.49983626 21.9484444,9.59092398 L21.2678363,10.4719532 C21.2615205,10.4801404 20.8103392,11.0732164 20.5425965,11.538152 L12.5905029,11.538152 C12.3321637,11.538152 12.1226667,11.7476023 12.1226667,12.0059883 C12.1226667,12.2643275 12.3321637,12.4738246 12.5905029,12.4738246 L20.3075556,12.4738246 C20.3047018,12.5220585 20.2999766,12.5945731 20.2909942,12.7168187 C20.2771462,12.9043743 20.249731,13.0917895 20.209076,13.2770994 L10.1903158,13.2770994 C10.1122807,12.9938246 9.97094737,12.7390409 9.69160234,12.6475789 L9.38507602,12.5469942 C9.37777778,12.5445614 9.37038596,12.5423158 9.36294737,12.5403509 C9.05946199,12.4569825 8.93244444,12.386386 8.88444444,12.352655 C8.88809357,12.3297778 8.89361404,12.3016608 8.89815205,12.2785965 C8.98264327,11.8496374 8.95957895,11.3624327 8.14778947,11.0007953 C8.03602339,10.9510175 7.93511111,10.9198129 7.8182924,10.8836959 C7.69950877,10.8469708 7.56491228,10.8053333 7.3651462,10.7284678 C7.07621053,10.6172164 6.27242105,10.3038596 6.1874152,10.2662924 C6.18231579,10.2640468 6.17721637,10.2618947 6.17202339,10.2597895 C6.08701754,10.2256374 5.99251462,10.0278363 5.89043275,9.67181287 L18.8138947,9.67181287 C19.0722339,9.67181287 19.281731,9.46236257 19.281731,9.20397661 C19.281731,8.94563743 19.0722339,8.73614035 18.8138947,8.73614035 L5.2431345,8.73614035 C4.96697076,8.73614035 4.51471345,8.88940351 4.33309942,8.95532164 C4.32959064,8.9565848 4.32612865,8.95789474 4.32266667,8.95925146 C4.31288889,8.96304094 3.33899415,9.33431579 3.06596491,8.69483041 C3.01431579,8.57389474 2.91415205,8.48023392 2.7899883,8.4368655 C2.59345029,8.36823392 2.4208655,8.42465497 1.95967251,8.57562573 C1.78545029,8.63265497 1.48116959,8.73221053 1.33281871,8.76121637 C0.984982456,8.56860819 0.935672515,8.33249123 0.935672515,8.12407018 C0.935672515,7.84959064 1.08851462,7.57950877 1.13735673,7.50966082 C1.23550877,7.39312281 1.27120468,7.2351345 1.23125146,7.08669006 C1.22643275,7.06283041 1.21847953,7.0100117 1.21155556,6.9417076 L22.7265029,6.9417076 C22.8116959,7.03195322 22.9015673,7.1737076 22.9729123,7.42217544 C22.9936842,7.49445614 23.0175439,7.58638596 23.0175439,7.65623392 C23.0175439,8.15962573 22.5960702,8.72327485 22.1498012,9.32004678 Z" id="Shape"></path>
                        <path d="M21.0624561,9.11260819 C21.0563743,9.08266667 21.0474854,9.0531462 21.0357895,9.02512281 C21.0240936,8.9965848 21.0096374,8.96940351 20.9927485,8.94418713 C20.9754386,8.91840936 20.9562573,8.89454971 20.934269,8.87307602 C20.9127485,8.85155556 20.8888889,8.83190643 20.8631579,8.81506433 C20.8378947,8.79826901 20.8107602,8.7837193 20.7826433,8.77202339 C20.7545731,8.76032749 20.7251462,8.75148538 20.6951579,8.74540351 C20.634807,8.73319298 20.5726316,8.73319298 20.5122807,8.74540351 C20.4822924,8.75148538 20.4528187,8.76032749 20.4247953,8.77202339 C20.3966784,8.7837193 20.3695439,8.79826901 20.3438596,8.81506433 C20.3185965,8.83190643 20.294269,8.85155556 20.2727485,8.87307602 C20.2512281,8.89459649 20.2315789,8.91845614 20.2147368,8.94418713 C20.1978947,8.96940351 20.1833918,8.99653801 20.1716959,9.02512281 C20.16,9.05319298 20.1511111,9.08266667 20.1450292,9.11260819 C20.1389474,9.14254971 20.1356725,9.1734269 20.1356725,9.20383626 C20.1356725,9.23419883 20.1389474,9.26507602 20.1450292,9.29553216 C20.1511111,9.32547368 20.16,9.35447953 20.1716959,9.38301754 C20.1833918,9.41108772 20.1978947,9.43822222 20.2147368,9.46348538 C20.2315789,9.48921637 20.2512281,9.51307602 20.2727485,9.53459649 C20.294269,9.55611696 20.3185497,9.57581287 20.3438596,9.59307602 C20.3695906,9.60991813 20.3967251,9.62442105 20.4247953,9.63611696 C20.4528655,9.64781287 20.4822924,9.65674854 20.5122807,9.66278363 C20.5426433,9.6688655 20.5730994,9.6717193 20.603462,9.6717193 C20.6343392,9.6717193 20.6647953,9.6688655 20.6951579,9.66278363 C20.7251462,9.65670175 20.7546199,9.64781287 20.7826433,9.63611696 C20.8107602,9.62442105 20.8378947,9.60996491 20.8631579,9.59307602 C20.8888889,9.57581287 20.9127485,9.55611696 20.934269,9.53459649 C20.9562573,9.51307602 20.9754386,9.48921637 20.9927485,9.46348538 C21.0095906,9.43822222 21.0240936,9.41108772 21.0357895,9.38301754 C21.0474854,9.35447953 21.0564211,9.32547368 21.0624561,9.29553216 C21.068538,9.26512281 21.0712982,9.23419883 21.0712982,9.20383626 C21.0712982,9.1734269 21.0684912,9.14250292 21.0624561,9.11260819 Z" id="Shape"></path>
                        <path d="M11.2594152,11.9144327 C11.2533333,11.884538 11.2444444,11.8550643 11.2327485,11.8269474 C11.2210526,11.7988772 11.2065497,11.7717427 11.1897076,11.7460585 C11.1728655,11.7207953 11.1532164,11.6964211 11.1316959,11.6749006 C11.1101754,11.6533801 11.0863158,11.633731 11.0605848,11.6169357 C11.0353216,11.6000936 11.0077193,11.5855906 10.9796491,11.5738947 C10.9515789,11.5621988 10.9221053,11.5533099 10.8921637,11.5472281 C10.8318129,11.5350643 10.7695906,11.5350643 10.7092398,11.5472281 C10.6792982,11.5533099 10.6502924,11.5621988 10.6217544,11.5738947 C10.5936842,11.5855906 10.5665497,11.6000936 10.5412865,11.6169357 C10.5155556,11.633731 10.4916959,11.6533801 10.4697076,11.6749006 C10.4481871,11.6964211 10.4290058,11.7207485 10.4116959,11.7460585 C10.3948538,11.7717895 10.3803509,11.798924 10.368655,11.8269474 C10.3569591,11.8550643 10.3480702,11.8844912 10.3419883,11.9144327 C10.3359064,11.9448421 10.3326316,11.9752515 10.3326316,12.0061287 C10.3326316,12.036538 10.3359064,12.0669942 10.3419883,12.0973567 C10.3480702,12.1272982 10.3569591,12.1567719 10.368655,12.1848421 C10.3803509,12.2129123 10.3948538,12.2400468 10.4116959,12.2657778 C10.4290058,12.2909942 10.4481871,12.3149006 10.4697076,12.3368889 C10.4916959,12.3584094 10.5155556,12.3780585 10.5412865,12.3949006 C10.5665497,12.4116959 10.5936842,12.4262456 10.6217544,12.4379415 C10.6502924,12.4496374 10.6792982,12.4584795 10.7092398,12.4646082 C10.7396491,12.4706901 10.7700585,12.4739181 10.8009357,12.4739181 C10.831345,12.4739181 10.8622222,12.4706901 10.8921637,12.4646082 C10.9221053,12.4584795 10.9515789,12.4496374 10.9796491,12.4379415 C11.0077193,12.4262456 11.0353216,12.4116959 11.0605848,12.3949006 C11.0863158,12.3780585 11.1101754,12.3584094 11.1316959,12.3368889 C11.1532164,12.3149006 11.1728655,12.2910409 11.1897076,12.2657778 C11.2065497,12.24 11.2210526,12.2128655 11.2327485,12.1848421 C11.2444444,12.1568187 11.2533333,12.1272982 11.2594152,12.0973567 C11.2654971,12.0669942 11.2687719,12.036538 11.2687719,12.0061287 C11.2687719,11.9752515 11.2654971,11.9448421 11.2594152,11.9144327 Z" id="Shape"></path>
                    </g>
                </g>
            </g>
        </g>
    </g>
</svg>