<?xml version="1.0" encoding="UTF-8"?>
<svg width="24px" height="22px" viewBox="0 0 24 22" version="1.1" xmlns="http://www.w3.org/2000/svg" xmlns:xlink="http://www.w3.org/1999/xlink">
    <!-- Generator: Sketch 46.2 (44496) - http://www.bohemiancoding.com/sketch -->
    <title>004-salad</title>
    <desc>Created with Sketch.</desc>
    <defs></defs>
    <g id="Welcome" stroke="none" stroke-width="1" fill="none" fill-rule="evenodd">
        <g id="Blog-List-2" transform="translate(-1283.000000, -540.000000)" fill-rule="nonzero" fill="#000000">
            <g id="Group-11" transform="translate(1266.000000, 432.000000)">
                <g id="Group-5" transform="translate(17.000000, 61.000000)">
                    <g id="004-salad" transform="translate(0.000000, 47.000000)">
                        <path d="M23.426,10.1428 C23.2472,9.9516 22.9952,9.842 22.7344,9.842 L22.6568,9.842 C23.0084,9.2368 23.1996,8.5496 23.1996,7.842 C23.1996,6.2464 22.2452,4.81 20.7964,4.1788 C20.7624,2.0028 18.984,0.242 16.8,0.242 C14.6164,0.242 12.8384,2.0016 12.8032,4.1768 C12.7216,4.1576 12.6376,4.1464 12.552,4.1464 C12.1964,4.1464 11.8616,4.32 11.6572,4.6104 L11.5576,4.752 C11.4756,4.868 11.3216,4.91 11.1928,4.85 L11.036,4.7772 C10.7132,4.6268 10.3368,4.6444 10.0284,4.822 C9.72,4.9996 9.5172,5.3176 9.4852,5.6716 L9.4696,5.844 C9.464,5.9056 9.4368,5.9916 9.4012,6.0836 C9.3096,6.04 9.244,5.9504 9.2344,5.8436 L9.2188,5.672 C9.1884,5.336 9.0088,5.0576 8.7516,4.8812 L10.0104,3.0948 C10.2556,2.7464 10.3508,2.322 10.2772,1.9004 C10.204,1.478 9.972,1.1104 9.624,0.8652 C8.9024,0.3572 7.9024,0.53 7.3944,1.2516 L5.0904,4.5216 C5.0136,4.6308 4.9568,4.7492 4.91,4.8708 C4.8728,4.8724 4.8332,4.8688 4.7924,4.85 L4.6356,4.7772 C4.3128,4.6276 3.9356,4.6448 3.628,4.8224 C3.32,5 3.1172,5.3176 3.0852,5.6716 L3.0696,5.844 C3.0568,5.986 2.9444,6.0984 2.8024,6.1112 L2.6304,6.1268 C2.2764,6.1588 1.9584,6.362 1.7808,6.6696 C1.6028,6.978 1.586,7.3544 1.7356,7.678 L1.808,7.834 C1.868,7.9636 1.8268,8.1172 1.71,8.1992 L1.5688,8.2988 C1.278,8.504 1.1044,8.8388 1.1044,9.1944 C1.1044,9.4316 1.1876,9.6556 1.3252,9.8416 L0.9492,9.8416 C0.6884,9.8416 0.4364,9.9512 0.2576,10.1424 C0.0772,10.3352 -0.016,10.5976 0.002,10.8612 C0.2388,14.36 2.4644,16.1168 5.7336,17.678 C6.0984,17.8524 6.3996,18.142 6.5824,18.4948 C6.7608,18.8396 6.7324,19.2844 6.5048,19.6628 C6.3332,19.9476 6.3284,20.2904 6.492,20.58 C6.6556,20.8696 6.9516,21.042 7.284,21.042 L16.4,21.042 C16.7324,21.042 17.0284,20.8692 17.192,20.58 C17.3556,20.2904 17.3508,19.9476 17.1752,19.6556 C16.9516,19.284 16.9236,18.8396 17.1016,18.4952 C17.284,18.1424 17.5852,17.8524 17.9504,17.678 C21.2188,16.1168 23.4448,14.3604 23.682,10.8616 C23.6996,10.5976 23.606,10.3356 23.426,10.1428 Z M22.4,7.842 C22.4,8.57 22.15,9.2736 21.6928,9.842 L19.6,9.842 L19.6,8.242 C19.6,8.0208 19.4212,7.842 19.2,7.842 C18.9788,7.842 18.8,8.0208 18.8,8.242 L18.8,9.842 L17.3876,9.842 C17.42,9.798 17.448,9.7516 17.4732,9.7036 C17.4744,9.7016 17.476,9.6996 17.4772,9.6976 C17.5124,9.6296 17.5376,9.5568 17.558,9.4828 C17.5632,9.4644 17.5676,9.446 17.5716,9.4268 C17.588,9.3508 17.5996,9.2736 17.5996,9.1944 C17.5996,8.8384 17.426,8.504 17.1356,8.3 L17.0436,8.2348 C17.0756,8.2328 17.1064,8.2276 17.138,8.2252 C17.186,8.2212 17.234,8.2164 17.2816,8.2104 C17.3604,8.2008 17.4384,8.1888 17.5156,8.1748 C17.5612,8.1664 17.6072,8.1588 17.6524,8.1488 C17.7356,8.1308 17.8176,8.1084 17.8988,8.0852 C17.9352,8.0748 17.972,8.0664 18.008,8.0548 C18.122,8.0184 18.2336,7.978 18.3428,7.932 C18.3732,7.9192 18.402,7.904 18.4316,7.8904 C18.5108,7.8548 18.5896,7.818 18.666,7.7772 C18.7088,7.7544 18.7504,7.7296 18.792,7.7052 C18.8532,7.6696 18.914,7.6336 18.9732,7.5948 C19.0172,7.566 19.0604,7.5364 19.1032,7.506 C19.1572,7.4676 19.2104,7.4276 19.2624,7.3868 C19.3052,7.3532 19.3476,7.32 19.3888,7.2848 C19.438,7.2428 19.4848,7.1988 19.532,7.1548 C19.5724,7.1172 19.6132,7.08 19.652,7.0408 C19.6964,6.9956 19.7376,6.9476 19.7796,6.9004 C19.8592,6.8112 19.9344,6.7188 20.006,6.6224 C20.0312,6.5884 20.058,6.5556 20.0824,6.5204 C20.126,6.4576 20.166,6.3924 20.206,6.3276 C20.226,6.2948 20.2468,6.2624 20.266,6.2288 C20.3064,6.1588 20.3436,6.0872 20.3796,6.0148 C20.3936,5.986 20.4076,5.9576 20.4212,5.9284 C20.4584,5.8488 20.4932,5.7684 20.5252,5.686 C20.532,5.6684 20.5384,5.65 20.5448,5.6324 C20.6172,5.4376 20.6788,5.2376 20.7204,5.0304 C21.742,5.5828 22.4,6.6576 22.4,7.842 Z M16.8,1.042 C18.5644,1.042 20,2.4776 20,4.242 C20,4.3024 19.9948,4.3616 19.9912,4.4212 C19.9912,4.4212 19.99,4.4236 19.99,4.4252 C19.9664,4.8456 19.8616,5.2428 19.692,5.6032 C19.6904,5.6068 19.6888,5.6104 19.6872,5.614 C19.648,5.6968 19.6048,5.7768 19.5588,5.8556 C19.5532,5.8652 19.548,5.8748 19.5424,5.8844 C19.4996,5.956 19.4532,6.0256 19.4048,6.0932 C19.3944,6.108 19.3844,6.1228 19.374,6.1372 C19.3288,6.1988 19.2804,6.258 19.2308,6.316 C19.2152,6.3344 19.2,6.3532 19.184,6.3712 C19.1372,6.424 19.0876,6.474 19.0372,6.5236 C19.0164,6.5444 18.996,6.5652 18.9744,6.5856 C18.9264,6.6304 18.876,6.6724 18.8252,6.7144 C18.7992,6.736 18.7736,6.758 18.7468,6.7784 C18.6976,6.816 18.6468,6.8512 18.5956,6.8864 C18.5648,6.9076 18.5344,6.9292 18.5024,6.9492 C18.4524,6.9808 18.4008,7.0092 18.3492,7.038 C18.314,7.0576 18.2788,7.078 18.2428,7.0964 C18.1924,7.122 18.1404,7.1448 18.0888,7.1676 C18.0492,7.1852 18.01,7.2036 17.9696,7.2192 C17.9188,7.2392 17.8668,7.2564 17.8148,7.2736 C17.7712,7.2884 17.7284,7.3036 17.684,7.3164 C17.6336,7.3312 17.5816,7.3424 17.53,7.3544 C17.4824,7.3656 17.4352,7.3776 17.3868,7.3868 C17.3368,7.396 17.286,7.402 17.2356,7.4092 C17.184,7.4164 17.1328,7.424 17.0808,7.4288 C17.0708,7.4296 17.0604,7.4296 17.05,7.4304 L17.05,7.43 C17.0508,7.4248 17.0508,7.42 17.0516,7.4148 C17.0648,7.3424 17.0692,7.2692 17.0676,7.196 C17.0672,7.1724 17.0644,7.1496 17.0624,7.126 C17.0576,7.0684 17.048,7.012 17.0344,6.956 C17.0288,6.9336 17.0244,6.9112 17.0172,6.8892 C16.9936,6.814 16.9644,6.74 16.924,6.6704 C16.746,6.3624 16.4284,6.1596 16.0744,6.1276 L15.902,6.112 C15.796,6.1024 15.7064,6.0372 15.6624,5.9452 L16.5172,5.0908 C16.6736,4.9344 16.6736,4.6816 16.5172,4.5252 C16.3608,4.3688 16.108,4.3688 15.9516,4.5252 L15.3808,5.096 C15.2964,4.9892 15.1972,4.8932 15.0764,4.8232 C14.9956,4.7764 14.9096,4.7424 14.8216,4.718 C14.792,4.7096 14.762,4.7088 14.732,4.7032 C14.672,4.6916 14.6128,4.6808 14.552,4.6796 C14.5444,4.6796 14.5368,4.6764 14.5292,4.6764 C14.4832,4.6764 14.438,4.6852 14.3924,4.6912 C14.364,4.6948 14.3356,4.6948 14.3076,4.7004 C14.226,4.7172 14.146,4.742 14.0688,4.7776 L13.9128,4.85 C13.8728,4.8684 13.8304,4.8756 13.7876,4.874 C13.7852,4.874 13.7832,4.8736 13.7808,4.8736 C13.7388,4.8708 13.6968,4.8592 13.6584,4.838 C13.6196,4.6356 13.6,4.4356 13.6,4.242 C13.6,2.4776 15.0352,1.042 16.8,1.042 Z M10.2664,5.9164 L10.282,5.744 C10.2904,5.6472 10.344,5.5636 10.4284,5.5152 C10.5124,5.4668 10.6116,5.4616 10.6996,5.5032 L10.8572,5.5764 C11.3368,5.798 11.9072,5.6448 12.2116,5.2132 L12.3112,5.0716 C12.4236,4.912 12.682,4.9132 12.7936,5.0712 L12.8932,5.2128 C13.0972,5.502 13.4204,5.6624 13.756,5.6724 C13.76,5.6724 13.7636,5.6724 13.7676,5.6724 C13.816,5.6732 13.8648,5.6724 13.9132,5.6668 C13.936,5.6644 13.9584,5.6592 13.9812,5.6552 C14.014,5.6492 14.0464,5.6448 14.0788,5.636 C14.1364,5.6204 14.1932,5.6008 14.2484,5.5752 L14.4048,5.5024 C14.4932,5.4616 14.5924,5.466 14.676,5.5144 C14.76,5.5632 14.8136,5.6464 14.822,5.7436 L14.8376,5.9152 C14.8856,6.4424 15.3028,6.86 15.8296,6.9072 L16.0016,6.9228 C16.0988,6.9312 16.1824,6.9848 16.2308,7.0692 C16.2796,7.1532 16.284,7.2524 16.2432,7.34 L16.1696,7.4984 C16.1664,7.5056 16.1652,7.512 16.1624,7.5192 C16.02,7.8456 16.0496,8.2084 16.2184,8.502 C16.2208,8.506 16.2232,8.5104 16.2256,8.5144 C16.2472,8.5508 16.27,8.5856 16.296,8.6196 C16.31,8.6384 16.3256,8.6556 16.3408,8.6736 C16.3604,8.696 16.3792,8.7192 16.4008,8.74 C16.4416,8.7804 16.4852,8.8184 16.5332,8.852 L16.6752,8.9524 C16.7544,9.0092 16.8,9.0972 16.8,9.1944 C16.8,9.2916 16.7544,9.3792 16.6752,9.4352 L16.5328,9.5352 C16.5316,9.536 16.5308,9.5372 16.5292,9.5384 C16.4772,9.5756 16.4296,9.6176 16.3852,9.6632 C16.3676,9.6812 16.3524,9.7016 16.336,9.7208 C16.312,9.7492 16.2884,9.778 16.2676,9.8088 C16.2596,9.8204 16.2492,9.8304 16.2416,9.8424 L10.9876,9.8424 C11.02,9.7984 11.048,9.7516 11.0736,9.7036 C11.0748,9.7016 11.076,9.7 11.0772,9.698 C11.1124,9.6296 11.138,9.5568 11.1584,9.4824 C11.1636,9.464 11.1676,9.446 11.1716,9.4276 C11.1884,9.352 11.1996,9.2748 11.2,9.196 L11.2,9.1952 L11.2,9.1952 L11.2,9.1952 C11.2,9.144 11.1888,9.0952 11.182,9.0452 C11.1768,9.0084 11.1776,8.9704 11.1684,8.9344 C11.1392,8.8152 11.0836,8.706 11.0172,8.6036 C10.942,8.488 10.8512,8.382 10.7356,8.3004 L10.594,8.2004 C10.4776,8.1184 10.4368,7.9652 10.4964,7.8364 L10.5696,7.6792 C10.6052,7.6024 10.6296,7.522 10.6464,7.4404 C10.6516,7.416 10.6516,7.3916 10.6548,7.3672 C10.6628,7.3096 10.6688,7.2524 10.6676,7.1948 C10.6668,7.1648 10.662,7.1352 10.6588,7.1052 C10.6532,7.0536 10.6464,7.0024 10.6336,6.952 C10.6252,6.9192 10.614,6.888 10.6028,6.856 C10.5932,6.8296 10.5884,6.802 10.5772,6.776 C10.5704,6.7604 10.5584,6.7488 10.5508,6.734 C10.5408,6.7136 10.5356,6.6916 10.5244,6.6716 C10.5032,6.6352 10.4744,6.6052 10.4492,6.5716 C10.4284,6.5436 10.41,6.5144 10.3868,6.4884 C10.3384,6.4344 10.2832,6.3884 10.2256,6.3456 C10.2084,6.3328 10.1956,6.3148 10.1776,6.3032 C10.2192,6.1816 10.2544,6.048 10.2664,5.9164 Z M8.0488,1.7128 C8.3028,1.352 8.8032,1.2656 9.1636,1.5196 C9.3372,1.642 9.4532,1.826 9.4896,2.0372 C9.526,2.2488 9.4792,2.4612 9.3568,2.6344 L7.7964,4.8488 C7.7964,4.8488 7.796,4.8488 7.796,4.8492 L7.0524,5.904 C6.93,6.078 6.7464,6.194 6.5352,6.2304 C6.3244,6.2656 6.1116,6.22 5.938,6.0972 C5.9372,6.0968 5.9368,6.096 5.936,6.0956 C5.8788,6.0552 5.8308,6.006 5.7872,5.954 C5.776,5.9408 5.7656,5.9268 5.7552,5.9128 C5.7172,5.8604 5.6844,5.8048 5.66,5.7452 C5.6584,5.7412 5.656,5.738 5.6544,5.734 C5.63,5.6708 5.6164,5.604 5.6084,5.536 C5.6064,5.5188 5.6056,5.5016 5.6044,5.4844 C5.6008,5.4164 5.6028,5.3472 5.6172,5.278 C5.6392,5.1732 5.6812,5.0728 5.7444,4.9832 L8.0488,1.7128 Z M2.1708,9.5348 L2.0292,9.4352 C1.9496,9.3792 1.904,9.2916 1.904,9.194 C1.904,9.0964 1.9496,9.0088 2.0292,8.9524 L2.17,8.8532 C2.6032,8.5488 2.756,7.9788 2.5336,7.4972 L2.4612,7.3412 C2.42,7.2528 2.4248,7.1536 2.4732,7.0692 C2.522,6.9852 2.6052,6.9316 2.7024,6.9232 L2.874,6.9076 C3.4012,6.8604 3.8184,6.4432 3.8664,5.916 L3.882,5.7436 C3.8904,5.6468 3.944,5.5636 4.028,5.5148 C4.1116,5.4664 4.2112,5.462 4.2992,5.5028 L4.4568,5.576 C4.5712,5.6288 4.6924,5.6596 4.8156,5.6692 C4.8168,5.6776 4.8204,5.686 4.822,5.6944 C4.8232,5.7016 4.8224,5.7088 4.8236,5.7156 C4.8316,5.7612 4.8484,5.8032 4.86,5.8476 C4.8736,5.8992 4.884,5.9516 4.9024,6.002 C4.9244,6.0612 4.9548,6.116 4.9832,6.172 C5.0024,6.2096 5.0172,6.2484 5.0396,6.2844 C5.0788,6.348 5.1268,6.4056 5.1748,6.4632 C5.1952,6.4876 5.2112,6.5144 5.2328,6.5376 C5.3064,6.6156 5.3876,6.6876 5.4772,6.7504 C5.556,6.806 5.64,6.8516 5.7256,6.8916 C5.7528,6.904 5.7804,6.914 5.8084,6.9248 C5.8696,6.9492 5.9316,6.97 5.9952,6.9864 C6.0272,6.9948 6.0588,7.0028 6.0916,7.0088 C6.1592,7.022 6.2276,7.0296 6.2968,7.034 C6.3228,7.0356 6.348,7.0396 6.374,7.04 C6.3808,7.04 6.3872,7.0416 6.394,7.0416 C6.4864,7.0416 6.5792,7.0336 6.672,7.0176 C7.094,6.944 7.4616,6.712 7.7068,6.364 L8.2952,5.5288 C8.362,5.5732 8.4136,5.6452 8.4224,5.7436 L8.438,5.9152 C8.486,6.4424 8.9032,6.8596 9.43,6.9072 L9.602,6.9228 C9.6396,6.926 9.6724,6.9416 9.7044,6.9572 C9.72,6.9652 9.7356,6.9724 9.7496,6.9832 C9.7712,6.9992 9.7888,7.02 9.8052,7.0416 C9.8156,7.0552 9.8272,7.0676 9.8352,7.0832 C9.8544,7.1208 9.868,7.1604 9.87,7.2012 C9.87,7.2028 9.8696,7.2052 9.8696,7.2068 C9.8712,7.2516 9.8628,7.2972 9.8432,7.3396 L9.77,7.4968 C9.6864,7.6772 9.656,7.87 9.6732,8.0568 C9.6736,8.0592 9.6744,8.0616 9.6744,8.0644 C9.6804,8.124 9.6904,8.1828 9.706,8.2408 C9.7704,8.4816 9.9168,8.7 10.1328,8.852 L10.23,8.9204 L10.2744,8.9516 C10.3544,9.0096 10.4,9.0972 10.4,9.1944 C10.4,9.2432 10.3888,9.2892 10.3672,9.3304 C10.3612,9.3424 10.3484,9.3496 10.3404,9.3608 C10.3212,9.388 10.3028,9.4156 10.2744,9.4356 L10.2692,9.4392 L10.1324,9.5352 C10.0776,9.574 10.0272,9.6188 9.9808,9.6668 C9.9664,9.6816 9.9548,9.6984 9.9416,9.7136 C9.9112,9.7488 9.882,9.7848 9.856,9.8236 C9.8516,9.83 9.8456,9.8356 9.8416,9.842 L2.4624,9.842 C2.386,9.722 2.2872,9.6168 2.1708,9.5348 Z M17.6056,16.956 C17.0844,17.2048 16.6532,17.6208 16.3908,18.1276 C16.0856,18.7172 16.1236,19.4608 16.4936,20.0752 C16.5208,20.1208 16.5096,20.1608 16.4948,20.186 C16.4804,20.2112 16.4524,20.242 16.3992,20.242 L7.284,20.242 C7.2312,20.242 7.2028,20.2116 7.1884,20.186 C7.174,20.1608 7.1624,20.1208 7.194,20.068 C7.56,19.4604 7.598,18.7168 7.2928,18.1268 C7.0308,17.62 6.5992,17.204 6.0784,16.9556 C2.9764,15.4748 1.0116,13.9296 0.8004,10.8076 C0.7964,10.748 0.8252,10.7076 0.8424,10.6888 C0.8624,10.6672 0.8972,10.642 0.9496,10.642 L2.208,10.642 L10.0968,10.642 L16.4968,10.642 L16.522,10.642 L21.8776,10.642 L22.7348,10.642 C22.7868,10.642 22.8216,10.6672 22.842,10.6888 C22.8592,10.7076 22.888,10.7476 22.8836,10.8076 C22.672,13.9296 20.7072,15.4748 17.6056,16.956 Z" id="Shape"></path>
                        <path d="M14.8,17.442 L11.3172,17.442 C11.0964,17.442 10.9172,17.6208 10.9172,17.842 C10.9172,18.0632 11.0964,18.242 11.3172,18.242 L14.8,18.242 C15.0208,18.242 15.2,18.0632 15.2,17.842 C15.2,17.6208 15.0208,17.442 14.8,17.442 Z" id="Shape"></path>
                        <path d="M8.8,18.242 L10.1544,18.242 C10.3752,18.242 10.5544,18.0632 10.5544,17.842 C10.5544,17.6208 10.3752,17.442 10.1544,17.442 L8.8,17.442 C8.5792,17.442 8.4,17.6208 8.4,17.842 C8.4,18.0632 8.5788,18.242 8.8,18.242 Z" id="Shape"></path>
                        <path d="M14.8,18.642 L8.8,18.642 C8.5792,18.642 8.4,18.8208 8.4,19.042 C8.4,19.2632 8.5792,19.442 8.8,19.442 L14.8,19.442 C15.0208,19.442 15.2,19.2632 15.2,19.042 C15.2,18.8208 15.0208,18.642 14.8,18.642 Z" id="Shape"></path>
                        <path d="M15.9516,3.9592 C16.0296,4.0372 16.132,4.0764 16.2344,4.0764 C16.3368,4.0764 16.4392,4.0372 16.5172,3.9592 C16.6736,3.8028 16.6736,3.55 16.5172,3.3936 L15.3856,2.2624 C15.2292,2.106 14.9764,2.106 14.82,2.2624 C14.6636,2.4188 14.6636,2.6716 14.82,2.828 L15.9516,3.9592 Z" id="Shape"></path>
                        <path d="M18.214,6.2216 C18.292,6.2996 18.3944,6.3388 18.4968,6.3388 C18.5992,6.3388 18.7016,6.2996 18.7796,6.2216 C18.936,6.0652 18.9356,5.8124 18.7796,5.656 L17.648,4.5248 C17.4916,4.3684 17.2388,4.3684 17.0824,4.5248 C16.926,4.6812 16.926,4.934 17.0824,5.0904 L18.214,6.2216 Z" id="Shape"></path>
                        <path d="M17.3656,4.0764 C17.468,4.0764 17.5704,4.0372 17.6484,3.9592 L18.78,2.828 C18.936,2.6716 18.9364,2.4188 18.78,2.2624 C18.6236,2.106 18.3708,2.106 18.2144,2.2624 L17.0828,3.3936 C16.9264,3.55 16.9264,3.8028 17.0828,3.9592 C17.1608,4.0372 17.2632,4.0764 17.3656,4.0764 Z" id="Shape"></path>
                        <path d="M19.6,7.442 C19.6,7.6632 19.7788,7.842 20,7.842 L21.6,7.842 C21.8212,7.842 22,7.6632 22,7.442 C22,7.2208 21.8212,7.042 21.6,7.042 L20,7.042 C19.7788,7.042 19.6,7.2208 19.6,7.442 Z" id="Shape"></path>
                        <path d="M12.2,7.642 C12.3024,7.642 12.4048,7.6028 12.4828,7.5248 L13.0828,6.9248 C13.2392,6.7684 13.2392,6.5156 13.0828,6.3592 C12.9264,6.2028 12.6736,6.2028 12.5172,6.3592 L11.9172,6.9592 C11.7608,7.1156 11.7608,7.3684 11.9172,7.5248 C11.9952,7.6028 12.0976,7.642 12.2,7.642 Z" id="Shape"></path>
                        <path d="M14.1172,8.5248 C14.1952,8.6028 14.2976,8.642 14.4,8.642 C14.5024,8.642 14.6048,8.6028 14.6828,8.5248 C14.8392,8.3684 14.8392,8.1156 14.6828,7.9592 L14.2828,7.5592 C14.1264,7.4028 13.8736,7.4028 13.7172,7.5592 C13.5608,7.7156 13.5608,7.9684 13.7172,8.1248 L14.1172,8.5248 Z" id="Shape"></path>
                        <path d="M12.5172,8.3592 L12.1172,8.7592 C11.9608,8.9156 11.9608,9.1684 12.1172,9.3248 C12.1952,9.4028 12.2976,9.442 12.4,9.442 C12.5024,9.442 12.6048,9.4028 12.6828,9.3248 L13.0828,8.9248 C13.2392,8.7684 13.2392,8.5156 13.0828,8.3592 C12.9264,8.2028 12.6732,8.2028 12.5172,8.3592 Z" id="Shape"></path>
                    </g>
                </g>
            </g>
        </g>
    </g>
</svg>