<?xml version="1.0" encoding="UTF-8"?>
<svg width="24px" height="25px" viewBox="0 0 24 25" version="1.1" xmlns="http://www.w3.org/2000/svg" xmlns:xlink="http://www.w3.org/1999/xlink">
    <!-- Generator: Sketch 46.2 (44496) - http://www.bohemiancoding.com/sketch -->
    <title>001-hotel</title>
    <desc>Created with Sketch.</desc>
    <defs></defs>
    <g id="Welcome" stroke="none" stroke-width="1" fill="none" fill-rule="evenodd">
        <g id="Blog-List-2" transform="translate(-1283.000000, -729.000000)" fill-rule="nonzero" fill="#000000">
            <g id="Group-11" transform="translate(1266.000000, 432.000000)">
                <g id="Group-5" transform="translate(17.000000, 61.000000)">
                    <g id="001-hotel" transform="translate(0.000000, 236.518053)">
                        <path d="M23.5312031,8.06254688 L19.96875,8.06254688 L19.96875,4.78125 C19.96875,4.52235938 19.7588437,4.3125 19.5,4.3125 L16.4999531,4.3125 L16.4999531,0.46875 C16.4999531,0.209859375 16.2900938,0 16.0312031,0 L7.96865625,0 C7.7098125,0 7.49990625,0.209859375 7.49990625,0.46875 L7.49990625,4.3125 L4.49995312,4.3125 C4.2410625,4.3125 4.03120312,4.52235938 4.03120312,4.78125 L4.03120312,8.06254688 L0.468796875,8.06254688 C0.20990625,8.06254688 4.6875e-05,8.27240625 4.6875e-05,8.53129688 L4.6875e-05,23.53125 C4.6875e-05,23.7901406 0.20990625,24 0.468796875,24 L4.49995312,24 L9.18745312,24 L14.8125,24 L19.5,24 L23.5312031,24 C23.7900469,24 23.9999531,23.7901406 23.9999531,23.53125 L23.9999531,8.53129688 C23.9999531,8.27240625 23.7900469,8.06254688 23.5312031,8.06254688 Z M4.03120312,9.93754687 L3.70153125,9.93754687 C3.4426875,9.93754687 3.23278125,10.1474062 3.23278125,10.4062969 C3.23278125,10.6651875 3.4426875,10.8750469 3.70153125,10.8750469 L4.03120312,10.8750469 L4.03120312,11.8124531 L2.34370312,11.8124531 C2.0848125,11.8124531 1.87495312,12.0223125 1.87495312,12.2812031 C1.87495312,12.5400938 2.0848125,12.7499531 2.34370312,12.7499531 L4.03120312,12.7499531 L4.03120312,13.6874531 L2.34370312,13.6874531 C2.0848125,13.6874531 1.87495312,13.8973125 1.87495312,14.1562031 C1.87495312,14.4150938 2.0848125,14.6249531 2.34370312,14.6249531 L4.03120312,14.6249531 L4.03120312,15.5623594 L2.34370312,15.5623594 C2.0848125,15.5623594 1.87495312,15.7722187 1.87495312,16.0311094 C1.87495312,16.29 2.0848125,16.4998594 2.34370312,16.4998594 L4.03120312,16.4998594 L4.03120312,17.4373125 L2.34370312,17.4373125 C2.0848125,17.4373125 1.87495312,17.6471719 1.87495312,17.9060625 C1.87495312,18.1649531 2.0848125,18.3748125 2.34370312,18.3748125 L4.03120312,18.3748125 L4.03120312,19.3123125 L2.34370312,19.3123125 C2.0848125,19.3123125 1.87495312,19.5221719 1.87495312,19.7810625 C1.87495312,20.0399531 2.0848125,20.2498125 2.34370312,20.2498125 L4.03120312,20.2498125 L4.03120312,21.1872187 L2.34370312,21.1872187 C2.0848125,21.1872187 1.87495312,21.3970781 1.87495312,21.6559687 C1.87495312,21.9148594 2.0848125,22.1247187 2.34370312,22.1247187 L4.03120312,22.1247187 L4.03120312,23.0625 L0.937546875,23.0625 L0.937546875,9.00004687 L4.03120312,9.00004687 L4.03120312,9.93754687 L4.03120312,9.93754687 Z M8.43740625,0.9375 L15.5624531,0.9375 L15.5624531,8.06254687 L8.4375,8.06254687 L8.4375,4.78125 C8.4375,4.78064062 8.43740625,4.78003125 8.43740625,4.77942187 L8.43740625,0.9375 Z M11.5312969,23.0625 L9.65620312,23.0625 L9.65620312,18.375 L11.5312969,18.375 L11.5312969,23.0625 Z M14.34375,23.0625 L12.4687969,23.0625 L12.4687969,18.375 L14.34375,18.375 L14.34375,23.0625 Z M19.03125,8.53129688 L19.03125,23.0625 L15.28125,23.0625 L15.28125,17.90625 C15.28125,17.6473594 15.0713437,17.4375 14.8125,17.4375 L9.18745312,17.4375 C8.9285625,17.4375 8.71870312,17.6473594 8.71870312,17.90625 L8.71870312,23.0625 L4.96870312,23.0625 L4.96870312,8.53129688 L4.96870312,5.25 L7.49990625,5.25 L7.49990625,8.53129688 C7.49990625,8.7901875 7.7098125,9.00004688 7.96865625,9.00004688 L7.96875,9.00004688 L16.0312031,9.00004688 L16.0312969,9.00004688 C16.2901875,9.00004688 16.5000469,8.7901875 16.5000469,8.53129688 L16.5000469,5.25 L19.03125,5.25 L19.03125,8.53129688 Z M23.0624531,23.0625 L19.96875,23.0625 L19.96875,22.1248125 L20.298375,22.1248125 C20.5572656,22.1248125 20.767125,21.9149531 20.767125,21.6560625 C20.767125,21.3971719 20.5572656,21.1873125 20.298375,21.1873125 L19.96875,21.1873125 L19.96875,20.2499062 L21.65625,20.2499062 C21.9150937,20.2499062 22.125,20.0400469 22.125,19.7811562 C22.125,19.5222656 21.9150937,19.3124062 21.65625,19.3124062 L19.96875,19.3124062 L19.96875,18.3749062 L21.65625,18.3749062 C21.9150937,18.3749062 22.125,18.1650469 22.125,17.9061562 C22.125,17.6472656 21.9150937,17.4374062 21.65625,17.4374062 L19.96875,17.4374062 L19.96875,16.4999531 L21.65625,16.4999531 C21.9150937,16.4999531 22.125,16.2900937 22.125,16.0312031 C22.125,15.7723125 21.9150937,15.5624531 21.65625,15.5624531 L19.96875,15.5624531 L19.96875,14.625 L21.65625,14.625 C21.9150937,14.625 22.125,14.4151406 22.125,14.15625 C22.125,13.8973594 21.9150937,13.6875 21.65625,13.6875 L19.96875,13.6875 L19.96875,12.75 L21.65625,12.75 C21.9150937,12.75 22.125,12.5401406 22.125,12.28125 C22.125,12.0223594 21.9150937,11.8125 21.65625,11.8125 L19.96875,11.8125 L19.96875,10.8750937 L21.65625,10.8750937 C21.9150937,10.8750937 22.125,10.6652344 22.125,10.4063437 C22.125,10.1474531 21.9150937,9.93759375 21.65625,9.93759375 L19.96875,9.93759375 L19.96875,9.00009375 L23.0624531,9.00009375 L23.0624531,23.0625 Z" id="Shape"></path>
                        <path d="M10.5938437,6.37504687 C10.8527344,6.37504687 11.0625937,6.1651875 11.0625937,5.90629687 L11.0625937,4.96884375 L12.9375469,4.96884375 L12.9375469,5.90629687 C12.9375469,6.1651875 13.1474062,6.37504687 13.4062969,6.37504687 C13.6651875,6.37504687 13.8750469,6.1651875 13.8750469,5.90629687 L13.8750469,3.09379687 C13.8750469,2.83490625 13.6651875,2.62504687 13.4062969,2.62504687 C13.1474062,2.62504687 12.9375469,2.83490625 12.9375469,3.09379687 L12.9375469,4.03134375 L11.0625937,4.03134375 L11.0625937,3.09384375 C11.0625937,2.83495313 10.8527344,2.62509375 10.5938437,2.62509375 C10.335,2.62509375 10.1250937,2.83495313 10.1250937,3.09384375 L10.1250937,5.90634375 C10.1250937,6.1651875 10.3349531,6.37504687 10.5938437,6.37504687 Z" id="Shape"></path>
                        <path d="M2.34370312,10.8750469 L2.35476562,10.8750469 C2.61365625,10.8750469 2.82351562,10.6651875 2.82351562,10.4062969 C2.82351562,10.1474063 2.61365625,9.93754688 2.35476562,9.93754688 L2.34370312,9.93754688 C2.0848125,9.93754688 1.87495312,10.1474063 1.87495312,10.4062969 C1.87495312,10.6651875 2.08476562,10.8750469 2.34370312,10.8750469 Z" id="Shape"></path>
                        <path d="M21.65625,21.1872656 L21.6452344,21.1872656 C21.3863438,21.1872656 21.1764844,21.397125 21.1764844,21.6560156 C21.1764844,21.9149063 21.3863438,22.1247656 21.6452344,22.1247656 L21.65625,22.1247656 C21.9150938,22.1247656 22.125,21.9149063 22.125,21.6560156 C22.125,21.397125 21.9150938,21.1872656 21.65625,21.1872656 Z" id="Shape"></path>
                        <path d="M5.90620313,10.4063437 L5.90620313,12.28125 C5.90620313,12.5401406 6.11610938,12.75 6.37495313,12.75 L17.6248594,12.75 C17.88375,12.75 18.0936094,12.5401406 18.0936094,12.28125 L18.0936094,10.4063437 C18.0936094,10.1474531 17.88375,9.93759375 17.6248594,9.93759375 L6.37495313,9.93759375 C6.11610938,9.93759375 5.90620313,10.1474531 5.90620313,10.4063437 Z M6.84370313,10.8750469 L17.1561094,10.8750469 L17.1561094,11.8124531 L6.84370313,11.8124531 L6.84370313,10.8750469 Z" id="Shape"></path>
                        <path d="M13.4656875,13.6875937 L13.454625,13.6875937 C13.1957813,13.6875937 12.985875,13.8974531 12.985875,14.1563437 C12.985875,14.4152344 13.1957813,14.6250937 13.454625,14.6250937 L13.4656875,14.6250937 C13.7245781,14.6250937 13.9344375,14.4152344 13.9344375,14.1563437 C13.9344375,13.8974531 13.724625,13.6875937 13.4656875,13.6875937 Z" id="Shape"></path>
                        <path d="M17.6248594,13.6875937 L14.8124063,13.6875937 C14.5535625,13.6875937 14.3436563,13.8974531 14.3436563,14.1563437 C14.3436563,14.4152344 14.5535625,14.6250937 14.8124063,14.6250937 L17.6248594,14.6250937 C17.88375,14.6250937 18.0936094,14.4152344 18.0936094,14.1563437 C18.0936094,13.8974531 17.88375,13.6875937 17.6248594,13.6875937 Z" id="Shape"></path>
                    </g>
                </g>
            </g>
        </g>
    </g>
</svg>