<?xml version="1.0" encoding="UTF-8"?>
<svg width="24px" height="20px" viewBox="0 0 24 20" version="1.1" xmlns="http://www.w3.org/2000/svg" xmlns:xlink="http://www.w3.org/1999/xlink">
    <!-- Generator: Sketch 46.2 (44496) - http://www.bohemiancoding.com/sketch -->
    <title>Shape</title>
    <desc>Created with Sketch.</desc>
    <defs></defs>
    <g id="Welcome" stroke="none" stroke-width="1" fill="none" fill-rule="evenodd">
        <g id="Blog-List-2" transform="translate(-1283.000000, -637.000000)" fill-rule="nonzero" fill="#000000">
            <g id="Group-11" transform="translate(1266.000000, 432.000000)">
                <g id="Group-5" transform="translate(17.000000, 61.000000)">
                    <g id="trees" transform="translate(0.000000, 144.000000)">
                        <path d="M24,11.4592969 C24,9.55734375 22.5499687,4.3141875 21.1791094,1.25901562 C20.8201406,0.459 20.2311563,0.000140625 19.5632344,0.000140625 C18.8496094,0.000140625 18.2109844,0.5265 17.8111875,1.44426562 C17.5203281,2.11176562 17.2258594,2.8786875 16.9431094,3.68864062 C16.3095,1.55821875 14.3334844,0 12.0000938,0 C9.67129688,0 7.69846875,1.55198438 7.06078125,3.67589062 C6.75267187,2.79829688 6.4295625,1.96940625 6.11076562,1.25892187 C5.75179688,0.45890625 5.16276562,9.375e-05 4.49484375,9.375e-05 C3.78126563,9.375e-05 3.1426875,0.526453125 2.74275,1.44421875 C1.4098125,4.50346875 0,9.651375 0,11.4592969 C0,13.8049687 1.72110937,15.6745312 3.99703125,15.901875 L3.99703125,18.75 L3.5625,18.75 L1.85442187,18.7498125 C1.854375,18.7498125 1.854375,18.7498125 1.85432812,18.7498125 C1.59553125,18.7498125 1.385625,18.9596719 1.38557812,19.2185156 C1.38557812,19.4774062 1.5954375,19.6872656 1.85432812,19.6873125 L3.56240625,19.6875 C3.56240625,19.6875 3.56240625,19.6875 3.56245313,19.6875 L4.4656875,19.6875 C4.46573438,19.6875 4.46578125,19.6875 4.46578125,19.6875 C4.46582812,19.6875 4.465875,19.6875 4.465875,19.6875 L11.9992031,19.6874531 C11.9994844,19.6874531 11.9997656,19.6875 12.0000469,19.6875 C12.0003281,19.6875 12.0006094,19.6874531 12.0008906,19.6874531 L19.5325781,19.6874062 C19.5331406,19.6874062 19.5336094,19.6875 19.534125,19.6875 C19.5346875,19.6875 19.5351562,19.6874062 19.5356719,19.6874062 L22.1455781,19.6874062 C22.4044687,19.6874062 22.6143281,19.4775 22.6143281,19.2186562 C22.6143281,18.9598125 22.4044687,18.7499062 22.1455781,18.7499062 L20.002875,18.7499062 L20.002875,15.9006094 C22.24575,15.6655312 23.9999062,13.7634844 24,11.4592969 Z M12.0000937,0.9375 C14.3262656,0.9375 16.2188437,2.83003125 16.2188437,5.15634375 C16.2188437,7.32417187 14.5752187,9.11503125 12.46875,9.34889062 L12.46875,7.94671875 L13.6937344,6.72178125 C13.8768281,6.53873437 13.8768281,6.24192187 13.6937812,6.058875 C13.5107812,5.87582812 13.2140156,5.87582812 13.030875,6.058875 L12.46875,6.62095312 L12.46875,5.15625 C12.46875,4.89735937 12.2588437,4.6875 12,4.6875 C11.7411094,4.6875 11.53125,4.89735937 11.53125,5.15625 L11.53125,9.34889062 C9.424875,9.1149375 7.78134375,7.32407812 7.78134375,5.15634375 C7.78134375,2.83007812 9.67382812,0.9375 12.0000937,0.9375 Z M4.46582812,7.49390625 C4.20698437,7.49390625 3.99707812,7.70376562 3.99707812,7.96270312 L3.99707812,7.96279687 L3.99707812,10.2667969 L3.5578125,9.82753125 C3.3748125,9.64448437 3.078,9.64448437 2.89485938,9.82753125 C2.71185938,10.0105781 2.71185938,10.3073906 2.89485938,10.4904844 L3.99707812,11.5927031 L3.99707812,14.9570625 C2.24807813,14.7341719 0.9375,13.2784687 0.9375,11.4592969 C0.9375,9.92025 2.22965625,4.96879687 3.60225,1.81875 C3.84267188,1.26703125 4.176375,0.937640625 4.49489063,0.937640625 C4.77304687,0.937640625 5.05729687,1.20126563 5.25553125,1.64282812 C6.66609375,4.78645312 7.99410937,9.83798437 7.99410937,11.4592969 C7.99401562,13.2458437 6.6590625,14.7255469 4.93457812,14.9556094 L4.93457812,13.5850781 L6.1595625,12.36 C6.3425625,12.1769531 6.3425625,11.8801875 6.15951562,11.6970937 C5.97646875,11.5140469 5.67965625,11.5140469 5.49660937,11.6971406 L4.93457812,12.2591719 L4.93457812,7.96279687 L4.93457812,7.96270312 C4.93457812,7.7038125 4.72471875,7.49390625 4.46582812,7.49390625 Z M11.53125,18.7499531 L4.93453125,18.75 L4.93453125,15.9006094 C7.17740625,15.6655313 8.93146875,13.7634844 8.9315625,11.4592969 C8.9315625,10.8928125 8.8029375,10.0300313 8.58609375,9.01692188 C9.38620312,9.72525 10.4071875,10.1892188 11.53125,10.2910312 L11.53125,11.2971094 C10.4627344,11.5148906 9.65620312,12.4618125 9.65620312,13.5936094 C9.65620312,14.7254531 10.4627344,15.6724219 11.53125,15.8902031 L11.53125,18.7499531 Z M12,14.9998594 C11.2245469,14.9998594 10.5937031,14.3690156 10.5937031,13.5936094 C10.5937031,12.81825 11.2245469,12.1874531 12,12.1874531 C12.7754062,12.1874531 13.40625,12.81825 13.40625,13.5936094 C13.40625,14.3690156 12.7754062,14.9998594 12,14.9998594 Z M19.0653281,18.7499531 L12.46875,18.7499531 L12.46875,15.8902031 C13.5372656,15.6724219 14.34375,14.7254531 14.34375,13.5936094 C14.34375,12.4617656 13.5372656,11.5148438 12.46875,11.2971094 L12.46875,10.2910781 C13.5974531,10.1888438 14.6222344,9.72154688 15.4238437,9.00820313 C15.2013281,10.0350469 15.0683906,10.9045313 15.0683906,11.4592969 C15.0683906,13.8049688 16.7895,15.6745313 19.0653281,15.901875 L19.0653281,18.7499531 Z M20.0028281,14.9556094 L20.0028281,13.5850313 L21.2279063,12.3599531 C21.4109531,12.1769531 21.4109063,11.8801406 21.2279063,11.6970469 C21.0448125,11.514 20.7480469,11.514 20.5649531,11.6970937 L20.0028281,12.2591719 L20.0028281,7.96275 L20.0028281,7.96265625 C20.0028281,7.70376562 19.7929688,7.49385937 19.5340781,7.49385937 C19.2752344,7.49385937 19.0653281,7.70371875 19.0653281,7.96265625 L19.0653281,7.96275 L19.0653281,10.2667031 L18.6262031,9.82748437 C18.4432031,9.6444375 18.1464375,9.6444375 17.9632969,9.82748437 C17.7802031,10.0104844 17.7802031,10.3072969 17.96325,10.4904375 L19.0653281,11.5926094 L19.0653281,14.9570156 C17.3164688,14.7341719 16.0058906,13.2784219 16.0058906,11.4592969 C16.0058906,9.92025 17.2981406,4.96879688 18.6706875,1.81870313 C18.9110625,1.26698438 19.2447656,0.93759375 19.5632812,0.93759375 C19.8413906,0.93759375 20.1256875,1.20121875 20.3238281,1.64278125 C21.7343906,4.7865 23.0625,9.83803125 23.0625,11.45925 C23.0624063,13.2457969 21.7274063,14.7255 20.0028281,14.9556094 Z" id="Shape"></path>
                    </g>
                </g>
            </g>
        </g>
    </g>
</svg>