<?xml version="1.0" encoding="UTF-8"?>
<svg width="24px" height="25px" viewBox="0 0 24 25" version="1.1" xmlns="http://www.w3.org/2000/svg" xmlns:xlink="http://www.w3.org/1999/xlink">
    <!-- Generator: Sketch 46.2 (44496) - http://www.bohemiancoding.com/sketch -->
    <title>003-planet-earth</title>
    <desc>Created with Sketch.</desc>
    <defs></defs>
    <g id="Welcome" stroke="none" stroke-width="1" fill="none" fill-rule="evenodd">
        <g id="Blog-List-2" transform="translate(-1283.000000, -589.000000)" fill-rule="nonzero" fill="#000000">
            <g id="Group-11" transform="translate(1266.000000, 432.000000)">
                <g id="Group-5" transform="translate(17.000000, 61.000000)">
                    <g id="003-planet-earth" transform="translate(0.000000, 96.249998)">
                        <polygon id="Shape" points="8.29095312 8.58195313 8.29095312 8.58195313 8.28445313 8.56795312"></polygon>
                        <polygon id="Shape" points="4.98478125 15.2796094 4.98478125 15.2861094 5.03178125 15.0606094"></polygon>
                        <polygon id="Shape" points="9.83465625 11.0456094 9.84165625 11.0151094 9.88515625 10.8066094"></polygon>
                        <polygon id="Shape" points="11.0747344 18.1309375 11.0812344 18.1099375 11.0852344 18.0969375"></polygon>
                        <path d="M16.7368594,9.78946875 C15.69,9.78946875 14.842125,10.6376719 14.842125,11.6842031 C14.842125,12.7307344 15.6900469,13.5789375 16.7368594,13.5789375 C17.7833906,13.5789375 18.6315937,12.7307344 18.6315937,11.6842031 C18.6315937,10.6376719 17.7833906,9.78946875 16.7368594,9.78946875 Z M16.7368594,12.6315938 C16.2145312,12.6315938 15.7894687,12.2065313 15.7894687,11.6842031 C15.7894687,11.161875 16.2145312,10.7368125 16.7368594,10.7368125 C17.2591875,10.7368125 17.68425,11.161875 17.68425,11.6842031 C17.68425,12.2065313 17.2591875,12.6315938 16.7368594,12.6315938 Z" id="Shape"></path>
                        <g id="Group">
                            <path d="M12,0 C10.1911406,0 8.47959375,0.40575 6.94167187,1.1229375 C6.204,0.429140625 5.20551562,0 4.1053125,0 C1.84167187,0 4.6875e-05,1.80632812 4.6875e-05,4.02632813 C4.6875e-05,4.86126562 0.5113125,5.91351563 1.14225,6.89685937 C0.41278125,8.44607812 4.6875e-05,10.1740781 4.6875e-05,11.9999531 C4.6875e-05,18.6271406 5.37192187,24 12,24 C18.6280781,24 23.9999531,18.6271406 23.9999531,12.0000469 C23.9999531,5.37295312 18.628125,0 12,0 Z M0.9474375,4.02632812 C0.9474375,2.32514062 2.36184375,0.947390625 4.1053125,0.947390625 C5.84910938,0.947390625 7.2631875,2.3251875 7.2631875,4.02632812 C7.2631875,5.72653125 4.1053125,9.15792187 4.1053125,9.15792187 C4.1053125,9.15792187 0.9474375,5.72653125 0.9474375,4.02632812 Z M0.94734375,11.9998125 C0.947390625,10.5189375 1.24265625,9.106125 1.77379687,7.81420312 C2.46759375,8.75779688 3.157875,9.52734375 3.40832812,9.79926562 L4.10526562,10.5568594 L4.80220312,9.79926562 C5.37154687,9.1809375 8.21048437,5.99620312 8.21048437,4.02632812 C8.21048437,3.23625 7.974,2.50073437 7.57167187,1.87832812 C8.33273437,1.543875 9.13795312,1.29225 9.97640625,1.135875 L9.719625,1.59754687 C9.59554687,1.82235937 9.549375,2.063625 9.54815625,2.30175 C9.55073437,2.60142187 9.62076562,2.903625 9.80709375,3.16954687 L9.80648437,3.1689375 L10.5267656,4.18073437 C10.5662344,4.23440625 10.6189687,4.34521875 10.6534219,4.46840625 C10.6887656,4.59154687 10.7086875,4.7289375 10.7083594,4.836 C10.7086875,4.88460937 10.7042812,4.92726562 10.6988906,4.95759375 L10.6992187,4.95660937 L10.5122344,5.97534375 C10.5021562,6.04326563 10.4427656,6.17648437 10.3550156,6.28701562 C10.26975,6.39942187 10.1554687,6.49003125 10.0922812,6.51689062 L8.82567187,7.10142187 C8.42053125,7.28990625 8.18334375,7.69035937 8.18334375,8.10815625 C8.18334375,8.26129687 8.215875,8.41982813 8.2846875,8.56921875 L8.81934375,9.73317187 C8.84714062,9.79251563 8.87901562,9.89578125 8.90020312,10.0107656 C8.92167187,10.12575 8.93334375,10.2532969 8.93334375,10.3679062 C8.93334375,10.46925 8.92354687,10.5617812 8.90995312,10.6205156 L8.90367187,10.6461094 L8.75807812,11.2783594 C8.74260937,11.3544375 8.67435937,11.4975 8.58028125,11.6181563 C8.48807812,11.7406875 8.36742187,11.8432969 8.29828125,11.8780312 L7.3625625,12.3744844 C7.3145625,12.4016719 7.205625,12.4303594 7.09035937,12.4291406 C6.95109375,12.4313437 6.80648437,12.3874219 6.7524375,12.3492656 L5.98696875,11.8563281 C5.73276562,11.6955937 5.451375,11.6355937 5.17223437,11.6337187 C4.91535937,11.6353125 4.6546875,11.6867344 4.41482812,11.8269844 L3.64823437,12.2806875 C3.50076562,12.3675 3.3763125,12.4875 3.2895,12.6315469 C3.20296875,12.7752187 3.15557812,12.9422812 3.15590625,13.1099531 C3.15464062,13.3619531 3.26203125,13.609875 3.441375,13.7942812 L3.44076562,13.7936719 L3.86990625,14.2414219 C3.90876562,14.2805625 3.9661875,14.3711719 4.0044375,14.477625 C4.04329687,14.583375 4.06476562,14.7043594 4.06410937,14.7949687 C4.0644375,14.8331719 4.06064062,14.8666406 4.05557812,14.8922344 L3.96998437,15.3021562 C3.95104687,15.3991406 3.88345312,15.569625 3.79378125,15.7228125 C3.70626562,15.8769375 3.59226562,16.0209375 3.51810937,16.0859531 L3.12998437,16.4339531 C2.87170312,16.6667344 2.53785937,17.0150156 2.29978125,17.2957031 C1.43901562,15.7216875 0.94734375,13.9172813 0.94734375,11.9998125 Z M8.88825,20.737875 L8.3925,22.4447344 C6.10298437,21.6517969 4.152,20.1287344 2.82257812,18.151875 C2.86551562,18.0988125 2.91159375,18.0413437 2.96057812,17.9813438 C3.1475625,17.7492656 3.53310937,17.3447344 3.76425,17.1384844 L4.15204687,16.7904844 C4.33617187,16.62375 4.48678125,16.4178281 4.61625,16.1952656 C4.74379687,15.9717188 4.84645312,15.7380469 4.89890625,15.4954688 L4.98510937,15.0811406 C5.00432812,14.9860781 5.01290625,14.8904063 5.01290625,14.7944063 C5.01257812,14.5736719 4.9696875,14.3570156 4.89510937,14.1514688 C4.8193125,13.9465313 4.71389062,13.7523281 4.5553125,13.5855469 L4.12617187,13.1374219 L4.1251875,13.1368125 L4.10845312,13.1140781 L4.1311875,13.0954688 L4.89825,12.6416719 L4.89923437,12.6413438 C4.94503125,12.6119531 5.05645312,12.5794219 5.17303125,12.5806875 C5.29935937,12.5790938 5.42535937,12.617625 5.47523437,12.6526875 L6.24009375,13.1453438 C6.50475,13.3124063 6.79875,13.3739531 7.09110937,13.3761563 C7.33364062,13.3748906 7.57771875,13.3313438 7.8073125,13.2112969 L8.74303125,12.7148438 C8.98110937,12.5863125 9.17095312,12.4028438 9.33257812,12.1950938 C9.49176562,11.9850938 9.61992187,11.7539063 9.68217187,11.4908906 L9.83503125,10.8264844 C9.86789062,10.6771406 9.88082812,10.5246094 9.88115625,10.3679531 C9.88082812,10.19175 9.86409375,10.0124063 9.83189062,9.83835938 C9.79935937,9.66403125 9.75295312,9.49635938 9.680625,9.33782813 L9.14535937,8.1725625 L9.14475,8.17129688 L9.13120312,8.10848438 C9.13120312,8.04721875 9.166875,7.98660938 9.22307812,7.96195313 L10.4900625,7.37742188 C10.7420625,7.25864063 10.9400156,7.0768125 11.1036094,6.86803125 C11.2652812,6.65742188 11.3919375,6.42028125 11.4440156,6.1464375 L11.631,5.12798438 L11.6313281,5.127 C11.6490469,5.03001563 11.6559375,4.933125 11.6563125,4.83646875 C11.6557031,4.62520313 11.6228437,4.41267188 11.5644375,4.20839063 C11.5050937,4.0040625 11.42325,3.80859375 11.2985156,3.6320625 L10.5785156,2.62059375 L10.5781875,2.61998438 C10.5386719,2.57010938 10.49325,2.4343125 10.4954531,2.30296875 C10.4944687,2.19942188 10.5213281,2.10304688 10.54725,2.0595 L11.1450469,0.985171875 C11.4279844,0.9624375 11.7121875,0.94725 12.0002344,0.94725 C17.4943594,0.94725 22.0635,4.97732813 22.9104375,10.2364688 L22.4872969,10.0012031 C22.3120312,9.90454688 22.1228906,9.84140625 21.9248437,9.79560938 C21.7268437,9.75079688 21.5231719,9.7258125 21.3235781,9.72553125 C21.2149687,9.72553125 21.1079062,9.73279688 21.0005156,9.75173438 L20.913,9.76720313 C20.1135469,8.2783125 18.5422031,7.26304688 16.7371406,7.26304688 C14.1252656,7.26304688 12.0003281,9.38798438 12.0003281,11.9998594 C12.0003281,13.5961875 13.5675937,15.9036094 14.7754687,17.445 L14.0526094,18.2578594 C14.0093906,18.3090469 13.8991406,18.3892031 13.7731406,18.4416563 C13.6484062,18.4965938 13.507875,18.5259844 13.423875,18.5247188 L13.393875,18.5237344 L12.0128906,18.4173281 L11.9781562,18.4097344 L11.9765625,18.409125 L11.9765625,18.4043906 L11.9809687,18.3759844 L11.9822344,18.3725156 L12.2285625,17.5517813 C12.2632969,17.43525 12.2781562,17.3183906 12.2781562,17.205 C12.2775469,16.9801875 12.2210156,16.765125 12.1209375,16.570875 C12.0204844,16.3776094 11.873625,16.2014063 11.6722031,16.0741406 L11.1183281,15.7280625 C10.9285312,15.6096563 10.7162812,15.5556094 10.5097969,15.5559375 C10.158,15.5565469 9.805875,15.7094063 9.57346875,16.0163438 L7.89445312,18.255 C7.746,18.4523438 7.674,18.6873281 7.674,18.9165938 C7.67367187,19.2503438 7.82592187,19.5847969 8.11546875,19.8023438 L8.72967187,20.26275 C8.76342187,20.2870781 8.81240625,20.3442188 8.845875,20.4190781 C8.88060937,20.4929531 8.899875,20.5816875 8.89926562,20.6498906 C8.8993125,20.6860781 8.89425,20.7164531 8.88825,20.737875 Z M20.526375,12.0003281 C20.526375,14.0924531 16.7369063,18.3157969 16.7369063,18.3157969 C16.7369063,18.3157969 12.9474375,14.0924062 12.9474375,12.0003281 C12.9474375,9.90665625 14.6438438,8.2108125 16.7369063,8.2108125 C18.8296406,8.2108125 20.526375,9.90660938 20.526375,12.0003281 Z M12,23.0526094 C11.0690625,23.0526094 10.1646562,22.9354219 9.30032812,22.7175469 L9.79832812,21.0012187 C9.83207812,20.8834219 9.84660937,20.765625 9.84660937,20.6500312 C9.846,20.4299062 9.796125,20.2180312 9.70603125,20.0222344 C9.61542187,19.827375 9.4846875,19.6457812 9.29770312,19.5046875 L8.68378125,19.0442812 C8.643375,19.0142812 8.62185937,18.9678281 8.62157812,18.9167344 C8.62190625,18.8822812 8.63104687,18.8517187 8.65223437,18.8235469 L10.331625,16.5846094 C10.3625625,16.5400781 10.435875,16.5024844 10.50975,16.5034687 C10.5523594,16.5034687 10.5886875,16.5145312 10.6161562,16.5315469 L11.16975,16.877625 C11.2022812,16.8972187 11.2474219,16.943625 11.2799531,17.0070937 C11.3128125,17.0699062 11.3314219,17.1463594 11.3308125,17.2050937 C11.3308125,17.2360312 11.3264062,17.2613437 11.3210156,17.2795781 L11.0756719,18.0981094 C11.0440781,18.2004375 11.0292656,18.3040312 11.0292656,18.4043906 C11.0282812,18.6481406 11.1220781,18.8894531 11.2904062,19.0634531 C11.4577969,19.239375 11.6933437,19.3441406 11.9406094,19.3621875 L13.3215937,19.4685937 C13.3560469,19.4711719 13.390125,19.4723906 13.42425,19.4723906 C13.678125,19.471125 13.920375,19.40925 14.1487031,19.3119844 C14.3760937,19.2128437 14.5879687,19.0799062 14.7610312,18.8879062 L15.3793594,18.1919062 C15.6682969,18.5386875 15.9013594,18.8029687 16.0320937,18.9485156 L16.7369531,19.7341875 L17.4418125,18.9481875 C18.1154062,18.1978594 21.4738125,14.3367187 21.4738125,12.0001875 C21.4738125,11.5397812 21.404625,11.0957344 21.2815312,10.6745156 C21.2957344,10.6741875 21.3083906,10.6729219 21.3235312,10.6729219 C21.4407187,10.6725937 21.5840156,10.6893281 21.7145156,10.7190469 C21.8446406,10.7481094 21.9633281,10.7926406 22.0271719,10.8289687 L23.0348906,11.3888437 C23.0462344,11.5915781 23.0528906,11.7949687 23.0528906,11.9999062 C23.0526562,18.0943594 18.0944062,23.0526094 12,23.0526094 Z" id="Shape"></path>
                            <polygon id="Shape" points="4.4143125 11.8302969 4.4198125 11.8272969 4.4208125 11.8267969"></polygon>
                        </g>
                        <path d="M4.183875,2.21020313 C3.31134375,2.21020313 2.60526562,2.91660938 2.60526562,3.78914063 C2.60526562,4.66134375 3.31139063,5.36807813 4.18392188,5.36807813 C5.05645313,5.36807813 5.76314063,4.66134375 5.76314063,3.78914063 C5.7631875,2.9169375 5.05640625,2.21020313 4.183875,2.21020313 Z M4.18392188,4.4206875 C3.83559375,4.42101562 3.55265625,4.13742187 3.55265625,3.78914062 C3.55265625,3.44085937 3.83559375,3.15759375 4.18392188,3.15759375 C4.53257813,3.15759375 4.81579688,3.44085938 4.81579688,3.78914062 C4.81584375,4.13742187 4.53257812,4.4206875 4.18392188,4.4206875 Z" id="Shape"></path>
                    </g>
                </g>
            </g>
        </g>
    </g>
</svg>